<svg xmlns="http://www.w3.org/2000/svg" version="1.1" xmlns:xlink="http://www.w3.org/1999/xlink" xmlns:svgjs="http://svgjs.dev/svgjs" width="1500" height="583" viewBox="0 0 1500 583"><g transform="matrix(1,0,0,1,-0.9090909090909918,-0.5280912364946175)"><svg viewBox="0 0 396 154" data-background-color="#ffffff" preserveAspectRatio="xMidYMid meet" height="583" width="1500" xmlns="http://www.w3.org/2000/svg" xmlns:xlink="http://www.w3.org/1999/xlink"><g id="tight-bounds" transform="matrix(1,0,0,1,0.2400000000000091,0.1394957983193308)"><svg viewBox="0 0 395.52 153.72100840336134" height="153.72100840336134" width="395.52"><g><svg viewBox="0 0 395.52 153.72100840336134" height="153.72100840336134" width="395.52"><g><svg viewBox="0 0 395.52 153.72100840336134" height="153.72100840336134" width="395.52"><g id="textblocktransform"><svg viewBox="0 0 395.52 153.72100840336134" height="153.72100840336134" width="395.52" id="textblock"><g><svg viewBox="0 0 395.52 153.72100840336134" height="153.72100840336134" width="395.52"><g transform="matrix(1,0,0,1,0,0)"><svg width="395.52" viewBox="-0.08 -30.96 114.23 44.4" height="153.72100840336134" data-palette-color="#000000"><path d="M25.96-27.28L25.96-27.28Q25.96-29.72 24-29.72L24-29.72Q21.92-29.72 19.62-26.86 17.32-24 15.56-19.94 13.8-15.88 12.34-11.66 10.88-7.44 10.08-4.54 9.28-1.64 9.28-1.28L9.28-1.28Q9.28-0.76 8.72-0.76L8.72-0.76Q7.52-0.76 7.52-3.96L7.52-3.96Q7.52-11.68 9.26-18.96 11-26.24 13.12-28.68L13.12-28.68Q7.4-27.88 3.84-24.64L3.84-24.64Q1.8-22.84 1.8-20.72L1.8-20.72Q1.8-19.68 2.6-19.68L2.6-19.68Q2.44-19.12 1.72-19.12 1-19.12 0.46-19.68-0.08-20.24-0.08-21.24L-0.08-21.24Q-0.08-23.6 2.78-25.62 5.64-27.64 8.96-28.62 12.28-29.6 14.6-29.6L14.6-29.6Q15.24-29.6 15.24-28.96L15.24-28.96Q12.44-22.48 10.48-10.88L10.48-10.88 10.76-10.88Q12.52-16.68 14.4-20.54 16.28-24.4 17.68-26.38 19.08-28.36 20.78-29.64 22.48-30.92 24.2-30.92L24.2-30.92Q27.72-30.92 28.4-27.88L28.4-27.88Q28.56-27.2 28.56-26.44L28.56-26.44Q28.56-24 26.88-21.12L26.88-21.12Q24.48-17 20.44-15.36L20.44-15.36 18.92-14.88Q20.08-14.76 21.38-11.74 22.68-8.72 23.68-5.14 24.68-1.56 26.08 1.4 27.48 4.36 28.84 4.36L28.84 4.36Q29.92 4.36 30.44 3.6L30.44 3.6Q30.72 3.6 30.72 3.8 30.72 4 30.48 4.36L30.48 4.36Q29.6 5.56 28.32 5.68L28.32 5.68Q26.24 5.68 24.3 2.84 22.36 0 21.16-3.46 19.96-6.92 18.62-10.36 17.28-13.8 16.36-14.6L16.36-14.6Q15.92-14.6 15.66-14.86 15.4-15.12 15.36-15.68L15.36-15.68Q19.6-15.68 22.96-19.92L22.96-19.92Q25.96-23.72 25.96-27.28ZM62.44-18.44L62.44-18.44Q67.19-16.92 67.19-10.64L67.19-10.64Q67.19-5.4 62.73-0.38 58.27 4.64 50.47 4.64L50.47 4.64Q44.35 4.64 42.52 1.08L42.52 1.08Q41.88-0.12 41.88-1.38 41.88-2.64 42.52-3.96L42.52-3.96Q43.71-6.52 45.99-6.52L45.99-6.52Q46.2-6.52 46.27-6.3 46.35-6.08 46.25-5.84 46.16-5.6 45.95-5.6L45.95-5.6Q44.59-5.6 43.67-3.84L43.67-3.84Q43.03-2.68 43.03-1.64 43.03-0.6 43.52 0.36L43.52 0.36Q44.91 3.08 49.75 3.08L49.75 3.08Q55.84 3.08 60.31-2.04L60.31-2.04Q63.8-5.96 64.59-10.64L64.59-10.64Q64.8-11.76 64.8-12.72L64.8-12.72Q64.8-15.48 63.16-16.84L63.16-16.84Q62.27-17.56 60.99-17.68L60.99-17.68Q58.83-16.76 56.35-16.76L56.35-16.76Q56.08-16.76 56.08-17.3 56.08-17.84 56.35-17.84L56.35-17.84Q60.39-17.84 63.44-21.64L63.44-21.64Q65.67-24.48 65.83-27.2L65.83-27.2Q65.75-29.6 63.95-29.72L63.95-29.72Q61.99-29.72 59.75-26.92 57.52-24.12 55.71-20.12 53.91-16.12 52.41-11.94 50.91-7.76 50.08-4.78 49.23-1.8 49.23-1.28 49.23-0.76 48.67-0.76L48.67-0.76Q47.48-0.76 47.48-3.96L47.48-3.96Q47.48-11.68 49.21-18.96 50.95-26.24 53.08-28.68L53.08-28.68Q47.35-27.88 43.8-24.64L43.8-24.64Q41.75-22.84 41.75-20.72L41.75-20.72Q41.75-19.68 42.55-19.68L42.55-19.68Q42.39-19.12 41.67-19.12 40.95-19.12 40.41-19.68 39.88-20.24 39.88-21.24L39.88-21.24Q39.88-23.6 42.73-25.62 45.59-27.64 48.91-28.62 52.23-29.6 54.55-29.6L54.55-29.6Q55.2-29.6 55.2-28.96L55.2-28.96Q52.59-22.92 50.47-11.32L50.47-11.32 50.8-11.32Q53.11-18.56 56.27-24.28L56.27-24.28Q57.95-27.36 59.99-29.14 62.03-30.92 64.16-30.92L64.16-30.92Q67.52-30.92 68.16-28.2L68.16-28.2Q68.28-27.64 68.28-27L68.28-27Q68.28-24.84 66.61-22.38 64.95-19.92 62.44-18.44ZM76.31 5.84L76.31 5.84Q73.99 5.84 72.89 3.4 71.79 0.96 71.79-3.92 71.79-8.8 73.23-15.48 74.67-22.16 76.61-26.56 78.55-30.96 79.99-30.96L79.99-30.96Q80.67-30.96 80.67-30.16L80.67-30.16Q79.83-28.24 78.55-24.38 77.27-20.52 76.41-17.24 75.55-13.96 74.85-9.56 74.15-5.16 74.15-2.02 74.15 1.12 74.77 2.82 75.39 4.52 76.47 4.52L76.47 4.52Q77.39 4.52 78.23 3.66 79.07 2.8 79.43 1.96L79.43 1.96Q79.63 1.52 80.15 1.72L80.15 1.72Q80.35 1.8 80.25 2.06 80.15 2.32 79.93 2.72 79.71 3.12 79.15 3.96L79.15 3.96Q77.95 5.84 76.31 5.84ZM85.83 0.36L85.83 0.36Q80.91 0.36 80.91-6.4L80.91-6.4Q80.91-10.2 82.83-14L82.83-14Q85.27-18.8 88.63-18.8L88.63-18.8Q89.11-18.8 89.43-18.56 89.75-18.32 89.87-17.84L89.87-17.84Q87.35-17.84 85.51-13.8 83.67-9.76 83.67-5.84L83.67-5.84Q83.67-1.08 86.27-1.08L86.27-1.08Q87.75-1.08 89.35-3.34 90.95-5.6 92.01-9.28 93.07-12.96 93.07-16.68L93.07-16.68 93.07-17.16Q91.83-17.96 91.03-19.16 90.23-20.36 90.23-20.92 90.23-21.48 90.73-21.98 91.23-22.48 91.75-22.48L91.75-22.48Q92.51-22.48 93.23-21.12 93.95-19.76 94.23-18.04L94.23-18.04Q95.47-17.2 96.41-17.2 97.35-17.2 97.91-17.52L97.91-17.52Q97.91-16.96 97.51-16.52 97.11-16.08 96.27-16.08 95.43-16.08 94.35-16.48L94.35-16.48Q94.31-12.64 93.19-8.76 92.07-4.88 90.07-2.26 88.07 0.36 85.83 0.36ZM100.83 0L100.83 0Q97.55 0 97.55-5.16L97.55-5.16Q97.55-8.24 99.07-11.92L99.07-11.92Q101.19-17.08 104.63-18.96L104.63-18.96Q106.11-19.76 107.39-19.76 108.67-19.76 109.41-19.2 110.15-18.64 110.35-18.08L110.35-18.08 110.59-17.56Q110.47-16.88 109.91-16.88L109.91-16.88Q109.27-16.88 109.17-17.18 109.07-17.48 108.95-17.7 108.83-17.92 108.39-18.3 107.95-18.68 107.39-18.68L107.39-18.68Q104.79-18.68 102.67-14L102.67-14Q100.27-8.6 100.27-3.84L100.27-3.84Q100.27-1.44 101.23-1.44L101.23-1.44Q102.55-1.44 105.49-6.06 108.43-10.68 110.79-15.52L110.79-15.52Q111.99-17.96 113.31-17.96L113.31-17.96Q114.15-17.96 114.15-17L114.15-17Q113.99-16.72 113.67-16.08 113.35-15.44 112.51-12.42 111.67-9.4 110.99-5.5 110.31-1.6 109.83 0.6L109.83 0.6Q112.87 1.12 113.35 3.24L113.35 3.24Q113.43 3.6 113.43 4.22 113.43 4.84 112.95 5.3 112.47 5.76 112.11 5.76L112.11 5.76Q112.19 5.48 112.15 4.78 112.11 4.08 111.89 3.6 111.67 3.12 111.07 2.6 110.47 2.08 109.51 1.84L109.51 1.84Q108.27 6.72 105.95 9.88L105.95 9.88Q103.31 13.44 98.83 13.44L98.83 13.44Q95.55 13.44 94.47 11.12L94.47 11.12Q94.43 11 94.43 10.92L94.43 10.92Q94.43 10.68 94.87 10.58 95.31 10.48 95.47 10.88L95.47 10.88Q96.19 12.52 98.83 12.52L98.83 12.52Q102.43 12.52 104.43 9.12L104.43 9.12Q106.23 6.12 107.19 1.64L107.19 1.64Q99.99 1.8 96.07 7.16L96.07 7.16Q95.83 7.52 95.31 7.28L95.31 7.28Q95.03 7.12 95.15 6.88L95.15 6.88Q96.87 4.28 99.95 2.46 103.03 0.64 107.43 0.48L107.43 0.48Q107.87-1.52 108.21-3.74 108.55-5.96 108.79-7.24 109.03-8.52 109.11-9.08L109.11-9.08 108.67-9.08Q103.39 0 100.83 0Z" opacity="1" transform="matrix(1,0,0,1,0,0)" fill="#000000" class="wordmark-text-0" data-fill-palette-color="primary" id="text-0"></path></svg></g></svg></g></svg></g></svg></g><g></g></svg></g><defs></defs></svg><rect width="395.52" height="153.72100840336134" fill="none" stroke="none" visibility="hidden"></rect></g></svg></g></svg>